<?xml version="1.0" encoding="UTF-8"?><svg id="b" xmlns="http://www.w3.org/2000/svg" xmlns:xlink="http://www.w3.org/1999/xlink" viewBox="0 0 250 79.15"><defs><style>.l{clip-path:url(#j);}.m{clip-path:url(#g);}.n{clip-path:url(#d);}.o{clip-path:url(#i);}.p{fill:none;}.p,.q{stroke-width:0px;}.r{clip-path:url(#e);}.s{clip-path:url(#f);}.q{fill:#fff;}.t{clip-path:url(#k);}.u{clip-path:url(#h);}</style><clipPath id="d"><path class="p" d="M123.48,51.64h0v-.02.02ZM140.09,40.47c2.4-3.1,5.78-4.66,10.16-4.66s7.82,1.56,10.14,4.66c2.32,3.1,3.5,6.82,3.5,11.17s-1.13,8.1-3.44,11.19c-2.31,3.09-5.7,4.63-10.2,4.63-3.13,0-5.78-.78-7.92-2.38-2.15-1.6-3.63-3.54-4.5-5.84-.87-2.29-1.29-4.83-1.29-7.61,0-4.33,1.16-8.06,3.56-11.16M131.33,32.13c-5.23,5.32-7.85,11.83-7.85,19.5,0,7.86,2.52,14.41,7.56,19.66,5.04,5.25,11.45,7.86,19.21,7.86s13.92-2.64,19.03-7.94c5.12-5.29,7.67-11.82,7.67-19.58s-2.6-14.21-7.79-19.52c-5.19-5.31-11.49-7.97-18.92-7.97s-13.69,2.66-18.92,7.98"/></clipPath><clipPath id="e"><path class="p" d="M126.76.3v11.72h-.01c0,.91-.16,1.75-.46,2.54-.29.79-.66,1.32-1.07,1.59-.38,0-.84-.09-1.37-.25-.51-.16-.95-.37-1.29-.6l-.19,1.49c.62.16,1.23.25,1.88.25,1.21,0,2.24-.5,3.09-1.47.85-.97,1.28-2.15,1.28-3.54V.3h-1.85Z"/></clipPath><clipPath id="f"><path class="p" d="M140.89.3v8.11c0,2.53-1.18,3.78-3.53,3.78-.62,0-1.15-.09-1.6-.29-.45-.2-.78-.44-.99-.69-.2-.25-.36-.59-.49-1-.12-.41-.17-.72-.19-.96-.01-.24-.01-.53-.01-.9V.3h-1.94v7.92c0,3.2,1.56,4.8,4.69,4.8,1.23,0,2.28-.23,3.12-.72.31-.19.6-.45.85-.79.25-.34.43-.63.53-.9.27-.59.4-1.47.4-2.65V.3h-.84Z"/></clipPath><clipPath id="g"><path class="p" d="M145.53,1.03c-.66.65-1,1.32-1,2.07s.21,1.37.62,1.9c.41.53.91.95,1.5,1.29.59.34,1.18.69,1.78,1,.6.31,1.09.7,1.51,1.13.43.43.63.91.63,1.42,0,.78-.25,1.4-.77,1.84-.51.44-1.2.66-2.1.66s-1.98-.31-3.26-.96v.88c1.26.5,2.54.75,3.84.75s2.32-.32,3.09-.98c.76-.66,1.15-1.52,1.15-2.55,0-.65-.22-1.23-.66-1.78-.44-.54-.98-1-1.59-1.37-.6-.37-1.23-.72-1.85-1.09-.62-.37-1.16-.78-1.59-1.25-.42-.47-.65-.98-.65-1.54l.02-.02c0-.76.34-1.31,1-1.62,1.21,0,2.66.37,4.35,1.1l.19-1.28c-1.31-.4-2.38-.59-3.25-.59-1.31,0-2.29.31-2.96.95"/></clipPath><clipPath id="h"><path class="p" d="M153.82.3l.1,1.35,2.56-.59c.44,0,.85.05,1.28.13v11.61h1.84V1.19c.43-.09.87-.13,1.29-.13l2.56.59.1-1.35h-9.73Z"/></clipPath><clipPath id="i"><path class="p" d="M168.64.3l.1,1.35,2.56-.59c.44,0,.85.05,1.28.13v11.61h1.84V1.19c.43-.09.87-.13,1.29-.13l2.56.59.1-1.35h-9.73Z"/></clipPath><clipPath id="j"><path class="p" d="M182.1,1.32c.84-.2,1.69-.31,2.54-.31.94.25,1.54.76,1.84,1.56.16.38.24.72.24,1.01,0,1.78-1.15,2.68-3.41,2.68h-1.21V1.32ZM180.27.3v12.51h1.84v-5.97l1.48.02,4.38,6.25,2.19-.28-5.07-6.13c1.1-.21,1.96-.57,2.62-1.1.66-.53.99-1.26.99-2.19s-.41-1.66-1.22-2.23c-.81-.57-1.85-.87-3.13-.87h-4.07Z"/></clipPath><clipPath id="k"><path class="p" d="M242.49,1.07c-.65.37-1.22.83-1.7,1.34-.49.51-.87,1.16-1.18,1.94-.31.78-.46,1.63-.46,2.6s.19,1.85.59,2.66c.4.81.91,1.44,1.57,1.93,1.34.99,2.92,1.48,4.78,1.48,1.53,0,2.82-.22,3.91-.65v-4.97h-1.84v4.75c-.5.13-1.09.19-1.72.19-1.59,0-2.87-.5-3.83-1.5-.97-1-1.46-2.42-1.46-4.26,0-1.46.37-2.69,1.1-3.72.74-1.03,1.75-1.72,3.03-2.04,1.12,0,2.51.35,4.23,1.07l.18-1.25c-.35-.15-.84-.28-1.47-.4-.63-.12-1.24-.19-1.79-.19-1.44,0-2.75.34-3.94,1.01"/></clipPath></defs><g id="c"><polygon class="q" points="0 25.11 0 67.57 0 78.2 30.38 78.2 30.38 67.57 12.11 67.57 12.11 25.11 0 25.11"/><rect class="q" x="36.35" y="25.11" width="12.11" height="53.09"/><polygon class="q" points="56.16 25.11 56.16 35.72 56.16 46.29 56.16 56.89 56.16 78.2 68.28 78.2 68.28 56.89 85.46 56.89 85.46 46.29 68.28 46.29 68.28 35.72 86.87 35.72 86.87 25.11 56.16 25.11"/><polygon class="q" points="86.22 25.11 86.22 35.72 98.84 35.72 98.84 78.2 110.93 78.2 110.93 35.72 123.56 35.72 123.56 25.11 86.22 25.11"/><g class="n"><rect class="q" x="-7.35" y="-7.35" width="264.68" height="93.85"/></g><polygon class="q" points="182.28 25.11 182.28 35.72 182.28 46.29 182.28 56.89 182.28 78.2 194.39 78.2 194.39 56.89 211.58 56.89 211.58 46.29 194.39 46.29 194.39 35.72 212.99 35.72 212.99 25.11 182.28 25.11"/><polygon class="q" points="218.76 25.11 218.76 35.72 218.76 46.29 218.76 56.89 218.76 78.2 230.87 78.2 230.87 56.89 248.06 56.89 248.06 46.29 230.87 46.29 230.87 35.72 249.47 35.72 249.47 25.11 218.76 25.11"/><g class="r"><rect class="q" x="-7.35" y="-7.35" width="264.68" height="93.85"/></g><g class="s"><rect class="q" x="-7.35" y="-7.35" width="264.68" height="93.85"/></g><g class="m"><rect class="q" x="-7.35" y="-7.35" width="264.68" height="93.85"/></g><g class="u"><rect class="q" x="-7.35" y="-7.35" width="264.68" height="93.85"/></g><g class="o"><rect class="q" x="-7.35" y="-7.35" width="264.68" height="93.85"/></g><g class="l"><rect class="q" x="-7.35" y="-7.35" width="264.68" height="93.85"/></g><path class="q" d="M196.02,2.56l2.48,6.13h-5.01l2.53-6.13ZM196.39,0l-5.6,12.79h1.01s1.4-3.4,1.4-3.4h5.61l1.41,3.41h2.06l-5.6-12.8h-.29Z"/><rect class="q" x="204.2" y=".3" width="1.73" height="12.51"/><polygon class="q" points="217.98 .29 217.98 9.38 217.91 9.38 210.71 .29 209.33 .29 209.33 12.8 210.15 12.8 210.15 2.66 210.22 2.66 218.5 13.01 218.81 13.01 218.81 .29 217.98 .29"/><rect class="q" x="222.23" y=".3" width="1.74" height="12.51"/><polygon class="q" points="236.02 .29 236.02 9.38 235.95 9.38 228.74 .29 227.36 .29 227.36 12.8 228.18 12.8 228.18 2.66 228.26 2.66 236.53 13.01 236.84 13.01 236.84 .29 236.02 .29"/><g class="t"><rect class="q" x="-7.35" y="-7.35" width="264.68" height="93.85"/></g></g></svg>